<svg width="100%" height="100%" id="svg" viewBox="0 0 1440 600" xmlns="http://www.w3.org/2000/svg" class="transition duration-300 ease-in-out delay-150"><defs><linearGradient id="gradient" x1="22%" y1="9%" x2="78%" y2="91%"><stop offset="5%" stop-color="#1a202c88"></stop><stop offset="95%" stop-color="#1a202c88"></stop></linearGradient></defs><path d="M 0,600 C 0,600 0,200 0,200 C 118.18181818181819,198.47846889952154 236.36363636363637,196.95693779904306 323,188 C 409.6363636363636,179.04306220095694 464.72727272727275,162.6507177033493 546,180 C 627.2727272727273,197.3492822966507 734.7272727272727,248.44019138755982 852,239 C 969.2727272727273,229.55980861244018 1096.3636363636365,159.58851674641147 1196,143 C 1295.6363636363635,126.41148325358851 1367.8181818181818,163.20574162679426 1440,200 C 1440,200 1440,600 1440,600 Z" stroke="none" stroke-width="0" fill="url(#gradient)" class="transition-all duration-300 ease-in-out delay-150 path-0"></path><defs><linearGradient id="gradient" x1="22%" y1="9%" x2="78%" y2="91%"><stop offset="5%" stop-color="#1a202cff"></stop><stop offset="95%" stop-color="#1a202cff"></stop></linearGradient></defs><path d="M 0,600 C 0,600 0,400 0,400 C 102.34449760765551,410.41148325358853 204.68899521531102,420.82296650717706 300,432 C 395.311004784689,443.17703349282294 483.5885167464114,455.11961722488036 577,458 C 670.4114832535886,460.88038277511964 768.9569377990431,454.69856459330146 856,426 C 943.0430622009569,397.30143540669854 1018.5837320574165,346.0861244019139 1114,338 C 1209.4162679425835,329.9138755980861 1324.7081339712918,364.9569377990431 1440,400 C 1440,400 1440,600 1440,600 Z" stroke="none" stroke-width="0" fill="url(#gradient)" class="transition-all duration-300 ease-in-out delay-150 path-1"></path></svg>